<svg xmlns="http://www.w3.org/2000/svg" width="40" height="40"><path fill-rule="evenodd" clip-rule="evenodd" fill="#24292e" d="M19.999.772C9.113.772.285 9.599.285 20.488c0 8.71 5.648 16.099 13.483 18.706.986.181 1.346-.428 1.346-.95 0-.468-.017-1.708-.027-3.353-5.484 1.191-6.641-2.643-6.641-2.643-.896-2.278-2.189-2.884-2.189-2.884-1.79-1.223.135-1.198.135-1.198 1.978.139 3.02 2.032 3.02 2.032 1.759 3.013 4.614 2.143 5.738 1.638.179-1.274.688-2.143 1.252-2.636-4.378-.498-8.98-2.189-8.98-9.744 0-2.152.768-3.912 2.029-5.29-.203-.499-.879-2.503.193-5.218 0 0 1.655-.53 5.422 2.021a18.914 18.914 0 0 1 4.936-.664 18.9 18.9 0 0 1 4.936.664c3.764-2.551 5.416-2.021 5.416-2.021 1.076 2.714.399 4.719.196 5.218 1.264 1.378 2.027 3.138 2.027 5.29 0 7.574-4.61 9.24-9.002 9.728.708.609 1.338 1.812 1.338 3.651 0 2.636-.024 4.762-.024 5.408 0 .527.355 1.141 1.356.948 7.827-2.612 13.471-9.997 13.471-18.704C39.715 9.598 30.887.772 19.999.772z"/></svg>