<svg xmlns="http://www.w3.org/2000/svg" width="40" height="40"><path fill="#1f97d8" d="M19.804.441c5.327.033 9.872 1.783 13.667 5.36 3.784 3.577 5.849 8.013 6.099 13.221.261 5.567-1.522 10.438-5.382 14.471-3.794 3.968-8.48 6.012-13.982 6.067-5.121.054-9.611-1.663-13.373-5.132C2.397 30.329.266 25.197.494 19.163.68 14.107 2.626 9.758 6.203 6.192 9.976 2.419 14.586.538 19.804.441z"/><path fill="#FCFDFE" d="M14.02 22.642c-1.065-.326-2.142-.663-3.207-.989l-1.566-.489c-.196-.065-.381-.13-.544-.25-.304-.228-.326-.511-.065-.794.174-.196.391-.326.631-.424l1.892-.75c4.349-1.674 8.698-3.36 13.058-5.034 1.381-.533 2.751-1.065 4.132-1.598a1.08 1.08 0 0 1 .587-.087.926.926 0 0 1 .772.837c.022.239.011.478-.033.718-.533 2.501-1.065 5.012-1.598 7.513-.435 2.066-.881 4.132-1.316 6.208l-.294 1.403a2.307 2.307 0 0 1-.217.652c-.217.402-.565.554-1.011.468a1.78 1.78 0 0 1-.728-.337c-1.5-1.109-3.001-2.229-4.512-3.338-.065-.054-.141-.098-.207-.141-.261-.076-.446-.272-.652-.424-.718-.522-1.435-1.065-2.153-1.587a.925.925 0 0 1-.152-.141c-.065-.109 0-.174.065-.239.979-.87 1.946-1.761 2.925-2.631.707-.641 1.424-1.283 2.131-1.924a363.53 363.53 0 0 1 2.12-1.903c.554-.5 1.109-.989 1.653-1.49l.13-.13c.033-.043.076-.087.054-.141-.022-.065-.087-.065-.141-.065-.196-.022-.359.054-.522.152-.598.359-1.174.739-1.761 1.109-1.783 1.12-3.577 2.251-5.36 3.37a680.948 680.948 0 0 0-3.686 2.327c-.142.073-.24.214-.425.149z"/><path fill="#CCD9E9" d="M14.02 22.642c.294-.12.544-.315.815-.478.783-.489 1.566-.979 2.348-1.479.554-.348 1.098-.707 1.653-1.055.913-.576 1.837-1.152 2.762-1.729.641-.402 1.283-.815 1.935-1.229l1.696-1.076a.948.948 0 0 1 .598-.152c.065.011.13.011.152.076.033.065.011.13-.043.196-.13.13-.25.272-.402.391-.272.217-.511.468-.772.696-.424.359-.815.75-1.239 1.109-.174.152-.337.315-.511.468-.25.207-.489.457-.728.674-.37.337-.75.663-1.12.989-.164.153-.338.305-.49.457-.402.381-.826.739-1.229 1.12-.489.446-.989.881-1.468 1.337-.348.326-.718.631-1.076.946-.054.043-.054.087-.022.141-.076 1.229-.163 2.457-.239 3.686-.022.326-.065.641-.054.968 0 .098 0 .185-.076.261-.065.022-.141.022-.207.022-.196-.011-.337-.109-.391-.294-.054-.196-.12-.381-.174-.576-.533-1.75-1.065-3.512-1.598-5.262-.055-.077-.087-.142-.12-.207z"/><path fill="#B1C8DB" d="M16.477 28.948c-.033-.424.043-.848.054-1.261.022-.457.065-.913.087-1.37l.098-1.392c.011-.239.033-.478.033-.707 0-.076.022-.13.098-.174.881.652 1.761 1.294 2.631 1.946.098.076.207.13.283.228-.815.794-1.642 1.587-2.457 2.381-.218.219-.479.392-.827.349z"/></svg>